<svg xmlns="http://www.w3.org/2000/svg" xmlns:xlink="http://www.w3.org/1999/xlink" aria-hidden="true" role="img" class="iconify iconify--carbon" width="1em" height="1em" preserveAspectRatio="xMidYMid meet" viewBox="0 0 32 32"><path d="M15 10h2v8h-2z" fill="#888888"></path><path d="M20 14h2v4h-2z" fill="#888888"></path><path d="M10 12h2v6h-2z" fill="#888888"></path><path d="M25 4h-8V2h-2v2H7a2 2 0 0 0-2 2v14a2 2 0 0 0 2 2h8v6h-4v2h10v-2h-4v-6h8a2 2 0 0 0 2-2V6a2 2 0 0 0-2-2zm0 16H7V6h18z" fill="#888888"></path></svg>
