<svg xmlns="http://www.w3.org/2000/svg" xmlns:xlink="http://www.w3.org/1999/xlink" aria-hidden="true" role="img" class="iconify iconify--carbon" width="1em" height="1em" preserveAspectRatio="xMidYMid meet" viewBox="0 0 32 32"><path d="M24 17l1.912 3.703l4.088.594L27 24l.771 4L24 25.75L20.229 28L21 24l-3-2.703l4.2-.594L24 17z" fill="#888888"></path><path d="M6 16h6v2H6z" fill="#888888"></path><path d="M6 12h10v2H6z" fill="#888888"></path><path d="M6 8h10v2H6z" fill="#888888"></path><path d="M16 26H4V6h24v10h2V6a2 2 0 0 0-2-2H4a2 2 0 0 0-2 2v20a2 2 0 0 0 2 2h12z" fill="#888888"></path></svg>
