<svg xmlns="http://www.w3.org/2000/svg" xmlns:xlink="http://www.w3.org/1999/xlink" aria-hidden="true" role="img" class="iconify iconify--carbon" width="1em" height="1em" preserveAspectRatio="xMidYMid meet" viewBox="0 0 32 32"><path d="M29.415 19L27.7 17.285A2.97 2.97 0 0 0 28 16a3 3 0 1 0-3 3a2.97 2.97 0 0 0 1.286-.3L28 20.414V28h-6v-3a7.008 7.008 0 0 0-7-7H9a7.008 7.008 0 0 0-7 7v5h28v-9.586A1.988 1.988 0 0 0 29.415 19zM4 25a5.006 5.006 0 0 1 5-5h6a5.006 5.006 0 0 1 5 5v3H4z" fill="#888888"></path><path d="M12 4a5 5 0 1 1-5 5a5 5 0 0 1 5-5m0-2a7 7 0 1 0 7 7a7 7 0 0 0-7-7z" fill="#888888"></path></svg>
