<svg xmlns="http://www.w3.org/2000/svg" xmlns:xlink="http://www.w3.org/1999/xlink" aria-hidden="true" role="img" class="iconify iconify--carbon" width="1em" height="1em" preserveAspectRatio="xMidYMid meet" viewBox="0 0 32 32"><path d="M4 24v-4a2.002 2.002 0 0 1 2-2h15a2.002 2.002 0 0 1 2 2v4a2.002 2.002 0 0 1-2 2H6a2.002 2.002 0 0 1-2-2zm2 0h15v-4l-15-.001z" fill="#888888"></path><path d="M12 12V8a2.002 2.002 0 0 1 2-2h7a2.002 2.002 0 0 1 2 2v4a2.002 2.002 0 0 1-2 2h-7a2.002 2.002 0 0 1-2-2zm2 0h7V8l-7-.001z" fill="#888888"></path><path d="M28 30h-2V2h2z" fill="#888888"></path></svg>
