<svg xmlns="http://www.w3.org/2000/svg" xmlns:xlink="http://www.w3.org/1999/xlink" aria-hidden="true" role="img" class="iconify iconify--carbon" width="1em" height="1em" preserveAspectRatio="xMidYMid meet" viewBox="0 0 32 32"><path d="M28 8h-4V4a2.002 2.002 0 0 0-2-2H4a2.002 2.002 0 0 0-2 2v18a2.002 2.002 0 0 0 2 2h4v4a2.002 2.002 0 0 0 2 2h18a2.002 2.002 0 0 0 2-2V10a2.002 2.002 0 0 0-2-2zM4 22V4h18v4H10a2.002 2.002 0 0 0-2 2v12zm18 0h-2.586L10 12.586V10h2.586L22 19.416zm-12-6.586L16.586 22H10zm12.001 1.173L15.414 10H22zM10 28v-4h12a2.002 2.002 0 0 0 2-2V10h4v18z" fill="#888888"></path></svg>
