<svg xmlns="http://www.w3.org/2000/svg" xmlns:xlink="http://www.w3.org/1999/xlink" aria-hidden="true" role="img" class="iconify iconify--carbon" width="1em" height="1em" preserveAspectRatio="xMidYMid meet" viewBox="0 0 32 32"><path d="M3 3h2v2H3z" fill="#888888"></path><path d="M7 3h2v2H7z" fill="#888888"></path><path d="M11 3h2v2h-2z" fill="#888888"></path><path d="M15 3h2v2h-2z" fill="#888888"></path><path d="M3 7h2v2H3z" fill="#888888"></path><path d="M3 11h2v2H3z" fill="#888888"></path><path d="M3 15h2v2H3z" fill="#888888"></path><path d="M3 19h2v2H3z" fill="#888888"></path><path d="M3 23h2v2H3z" fill="#888888"></path><path d="M3 27h2v2H3z" fill="#888888"></path><path d="M27 3h2v2h-2z" fill="#888888"></path><path d="M23 3h2v2h-2z" fill="#888888"></path><path d="M19 3h2v2h-2z" fill="#888888"></path><path d="M7 27h2v2H7z" fill="#888888"></path><path d="M11 27h2v2h-2z" fill="#888888"></path><path d="M15 27h2v2h-2z" fill="#888888"></path><path d="M23 27h2v2h-2z" fill="#888888"></path><path d="M19 27h2v2h-2z" fill="#888888"></path><path d="M27 7h2v2h-2z" fill="#888888"></path><path d="M27 11h2v2h-2z" fill="#888888"></path><path d="M27 15h2v2h-2z" fill="#888888"></path><path d="M27 19h2v2h-2z" fill="#888888"></path><path d="M27 23h2v2h-2z" fill="#888888"></path><path d="M27 27h2v2h-2z" fill="#888888"></path><path d="M8 10h10v2H8z" fill="#888888"></path><path d="M8 15h6v2H8z" fill="#888888"></path></svg>
