<svg xmlns="http://www.w3.org/2000/svg" xmlns:xlink="http://www.w3.org/1999/xlink" aria-hidden="true" role="img" class="iconify iconify--carbon" width="1em" height="1em" preserveAspectRatio="xMidYMid meet" viewBox="0 0 32 32"><path d="M19 10h7v2h-7z" fill="#888888"></path><path d="M19 15h7v2h-7z" fill="#888888"></path><path d="M19 20h7v2h-7z" fill="#888888"></path><path d="M6 10h7v2H6z" fill="#888888"></path><path d="M6 15h7v2H6z" fill="#888888"></path><path d="M6 20h7v2H6z" fill="#888888"></path><path d="M28 5H4a2.002 2.002 0 0 0-2 2v18a2.002 2.002 0 0 0 2 2h24a2.002 2.002 0 0 0 2-2V7a2.002 2.002 0 0 0-2-2zM4 7h11v18H4zm13 18V7h11v18z" fill="#888888"></path></svg>
