<svg xmlns="http://www.w3.org/2000/svg" xmlns:xlink="http://www.w3.org/1999/xlink" aria-hidden="true" role="img" class="iconify iconify--carbon" width="32" height="32" preserveAspectRatio="xMidYMid meet" viewBox="0 0 32 32"><path d="M4 20v2h4.586L2 28.586L3.414 30L10 23.414V28h2v-8H4z" fill="#888888"></path><path d="M27.17 26l-2.58 2.58L26 30l4-4l-4-4l-1.42 1.41L27.17 26z" fill="#888888"></path><path d="M18.83 26l2.58-2.58L20 22l-4 4l4 4l1.42-1.41L18.83 26z" fill="#888888"></path><path d="M25.7 9.3l-7-7A.909.909 0 0 0 18 2H8a2.006 2.006 0 0 0-2 2v12h2V4h8v6a2.006 2.006 0 0 0 2 2h6v6h2v-8a.91.91 0 0 0-.3-.7zM18 10V4.4l5.6 5.6z" fill="#888888"></path></svg>
