<svg xmlns="http://www.w3.org/2000/svg" xmlns:xlink="http://www.w3.org/1999/xlink" aria-hidden="true" role="img" class="iconify iconify--carbon" width="1em" height="1em" preserveAspectRatio="xMidYMid meet" viewBox="0 0 32 32"><path d="M15 21h-5a2 2 0 0 1-2-2v-6a2 2 0 0 1 2-2h5v2h-5v6h5z" fill="#888888"></path><path d="M25 21h-5a2 2 0 0 1-2-2v-6a2 2 0 0 1 2-2h5v2h-5v6h5z" fill="#888888"></path><path d="M28 26H4a2 2 0 0 1-2-2V8a2 2 0 0 1 2-2h24a2 2 0 0 1 2 2v16a2 2 0 0 1-2 2zM4 8v16h24V8z" fill="#888888"></path></svg>
