<svg xmlns="http://www.w3.org/2000/svg" xmlns:xlink="http://www.w3.org/1999/xlink" aria-hidden="true" role="img" class="iconify iconify--carbon" width="1em" height="1em" preserveAspectRatio="xMidYMid meet" viewBox="0 0 32 32"><path d="M6 16h6v2H6z" fill="#888888"></path><path d="M6 12h10v2H6z" fill="#888888"></path><path d="M6 8h10v2H6z" fill="#888888"></path><path d="M14 26H4V6h24v10h2V6a2 2 0 0 0-2-2H4a2 2 0 0 0-2 2v20a2 2 0 0 0 2 2h10z" fill="#888888"></path><path d="M22 25.59L19.41 23L18 24.41l4 4l8-8L28.59 19L22 25.59z" fill="#888888"></path></svg>
