<svg xmlns="http://www.w3.org/2000/svg" xmlns:xlink="http://www.w3.org/1999/xlink" aria-hidden="true" role="img" class="iconify iconify--carbon" width="1em" height="1em" preserveAspectRatio="xMidYMid meet" viewBox="0 0 32 32"><path d="M28 6v20H4V6h24m0-2H4a2 2 0 0 0-2 2v20a2 2 0 0 0 2 2h24a2 2 0 0 0 2-2V6a2 2 0 0 0-2-2z" fill="#888888"></path><path d="M6 10h7v2H6z" fill="#888888"></path><path d="M6 14h4v2H6z" fill="#888888"></path><path d="M23 18h-6a3 3 0 0 0-3 3v2h2v-2a1 1 0 0 1 1-1h6a1 1 0 0 1 1 1v2h2v-2a3 3 0 0 0-3-3z" fill="#888888"></path><path d="M20 17a4 4 0 1 0-4-4a4 4 0 0 0 4 4zm0-6a2 2 0 1 1-2 2a2 2 0 0 1 2-2z" fill="#888888"></path></svg>
