<svg xmlns="http://www.w3.org/2000/svg" xmlns:xlink="http://www.w3.org/1999/xlink" aria-hidden="true" role="img" class="iconify iconify--carbon" width="1em" height="1em" preserveAspectRatio="xMidYMid meet" viewBox="0 0 32 32"><path d="M24 18h-7v-4h3a2.002 2.002 0 0 0 2-2V8a2.002 2.002 0 0 0-2-2h-3V2h-2v4h-3a2.002 2.002 0 0 0-2 2v4a2.002 2.002 0 0 0 2 2h3v4H8a2.002 2.002 0 0 0-2 2v4a2.002 2.002 0 0 0 2 2h7v4h2v-4h7a2.002 2.002 0 0 0 2-2v-4a2.002 2.002 0 0 0-2-2zM12 8h8v4h-8zm12 16H8v-4h16z" fill="#888888"></path></svg>
